<svg aria-hidden="true" style="position: absolute; width: 0; height: 0; overflow: hidden;" version="1.1" xmlns="http://www.w3.org/2000/svg" xmlns:xlink="http://www.w3.org/1999/xlink">
<defs>
<symbol id="icon-toggle-on" viewBox="0 0 32 28">
<path d="M0 14c0-5.516 4.484-10 10-10h12c5.516 0 10 4.484 10 10s-4.484 10-10 10h-12c-5.516 0-10-4.484-10-10zM22 22c4.406 0 8-3.594 8-8s-3.594-8-8-8-8 3.594-8 8 3.594 8 8 8z"></path>
</symbol>
<symbol id="icon-arrow" viewBox="0 0 32 32">
<path d="M25.946 3.773l-3.796-3.773-16.096 16 16.096 16 3.796-3.773-12.3-12.227 12.3-12.227z"></path>
</symbol>
<symbol id="icon-arrow2" viewBox="0 0 32 32">
<path d="M10 0l-3.773 3.773 12.227 12.227-12.227 12.227 3.773 3.773 16-16-16-16z"></path>
</symbol>
<symbol id="icon-arrow3" viewBox="0 0 32 32">
<path d="M16 6l-16 16 3.773 3.773 12.227-12.227 12.227 12.227 3.773-3.773-16-16z"></path>
</symbol>
<symbol id="icon-arrow4" viewBox="0 0 32 32">
<path d="M28.227 6.227l-12.227 12.227-12.227-12.227-3.773 3.773 16 16 16-16-3.773-3.773z"></path>
</symbol>
<symbol id="icon-bell" viewBox="0 0 32 32">
<path d="M16.027 27.373c-3.107 0-6.213-0.493-9.16-1.48-1.12-0.387-1.973-1.173-2.347-2.2-0.387-1.027-0.253-2.16 0.36-3.173l1.533-2.547c0.32-0.533 0.613-1.6 0.613-2.227v-3.853c0-4.96 4.040-9 9-9s9 4.040 9 9v3.853c0 0.613 0.293 1.693 0.613 2.24l1.52 2.533c0.573 0.96 0.68 2.12 0.293 3.173s-1.227 1.853-2.28 2.2c-2.933 0.987-6.040 1.48-9.147 1.48zM16.027 4.893c-3.853 0-7 3.133-7 7v3.853c0 0.973-0.4 2.413-0.893 3.253l-1.533 2.547c-0.293 0.493-0.373 1.013-0.2 1.453 0.16 0.453 0.56 0.8 1.107 0.987 5.573 1.867 11.48 1.867 17.053 0 0.48-0.16 0.853-0.52 1.027-1s0.133-1-0.133-1.44l-1.533-2.547c-0.507-0.867-0.893-2.293-0.893-3.267v-3.84c0-3.867-3.133-7-7-7z"></path>
<path d="M18.507 5.253c-0.093 0-0.187-0.013-0.28-0.040-0.387-0.107-0.76-0.187-1.12-0.24-1.133-0.147-2.227-0.067-3.253 0.24-0.373 0.12-0.773 0-1.027-0.28s-0.333-0.68-0.187-1.040c0.547-1.4 1.88-2.32 3.4-2.32s2.853 0.907 3.4 2.32c0.133 0.36 0.067 0.76-0.187 1.040-0.2 0.213-0.48 0.32-0.747 0.32z"></path>
<path d="M16.027 30.413c-1.32 0-2.6-0.533-3.533-1.467s-1.467-2.213-1.467-3.533h2c0 0.787 0.32 1.56 0.88 2.12s1.333 0.88 2.12 0.88c1.653 0 3-1.347 3-3h2c0 2.76-2.24 5-5 5z"></path>
</symbol>
<symbol id="icon-btn" viewBox="0 0 32 32">
<path d="M20.98 4.542h-7.368l3.684-3.684 3.684 3.684zM13.659 27.504h7.274l-3.637 3.637-3.637-3.637zM7.181 7.055l-7.024 17.889h2.872l1.436-3.824h7.977l1.436 3.824h2.872l-7.009-17.889h-2.56zM5.417 18.56l3.028-8.086 3.028 8.086h-6.057zM22.213 22.462h9.553v2.482h-13.315v-2.014l9.241-13.362h-9.179v-2.498h12.956v1.967l-9.257 13.424z"></path>
</symbol>
<symbol id="icon-button" viewBox="0 0 32 32">
<path d="M19.92 6.213h-6.293l3.147-3.147 3.147 3.147zM13.667 25.826h6.213l-3.107 3.107-3.107-3.107zM8.133 8.36l-6 15.28h2.453l1.227-3.267h6.813l1.227 3.267h2.453l-5.987-15.28h-2.187zM6.627 18.186l2.587-6.907 2.587 6.907h-5.173zM20.973 21.52h8.16v2.12h-11.373v-1.72l7.893-11.413h-7.84v-2.133h11.067v1.68l-7.907 11.467z"></path>
</symbol>
<symbol id="icon-close" viewBox="0 0 32 32">
<path d="M32 3.234l-3.234-3.234-12.766 12.766-12.766-12.766-3.234 3.234 12.766 12.766-12.766 12.766 3.234 3.234 12.766-12.766 12.766 12.766 3.234-3.234-12.766-12.766 12.766-12.766z"></path>
</symbol>
</defs>
</svg>
